<?xml version="1.0" encoding="utf-8"?><svg viewBox="0 0 17 20" xmlns="http://www.w3.org/2000/svg" xmlns:xlink="http://www.w3.org/1999/xlink"><style>:root>svg{display:none}:root>svg:target{display:block}</style><svg viewBox="0 0 17 20" id="arita" xmlns="http://www.w3.org/2000/svg"><path fill-rule="evenodd" clip-rule="evenodd" d="M11.832 4.84a.182.182 0 01-.096.048c-.072 0-.096-.024-.096-.096 0-.024.024-.072.072-.12.945-.895 1.947-2.282 2.58-3.158.283-.392.492-.681.588-.778.12-.12.36-.144.624-.144.216 0 .408 0 .48.072.072.072.072.24.072.504 0 .149-.113.26-.256.4a9.517 9.517 0 00-.056.056c-.106.106-.4.325-.797.62-.864.642-2.21 1.641-3.115 2.596zM3.144 17.728c1.176-.336 5.64-4.776 8.328-7.992-1.512-1.968-2.424-2.448-3.36-2.448-1.68 0-3.888 2.376-4.848 5.304-.768 2.376-.768 4.392-.12 5.136zm5.862-4.588c-.829 1.213-1.828 2.676-1.734 3.844.024.48.264 1.344.768 1.92.072.144 1.128.144 1.344.024 1.536-.936 2.904-2.232 3.792-3.096l-.144-.168c-.936 1.008-2.28 1.848-2.88 2.112-.48-.168-.84-.6-.864-1.008-.096-2.016 3.816-7.92 5.376-9.888 0-.048 0-.096-.024-.12-.024-.048-.096-.024-.192.072-.552.576-1.32 1.344-1.68 1.632-1.416-1.536-2.088-1.752-3.264-1.752-2.088 0-6.48 2.376-8.016 6.192-.984 2.328-.984 5.136.144 6.024.12.096.744.168.96 0 1.992-1.728 4.92-4.488 7.032-6.72-.176.284-.39.598-.618.932z"/></svg></svg>